<svg xmlns="http://www.w3.org/2000/svg" viewBox="0 0 480 480">
    <g id="Layer_2" data-name="Layer 2">
        <g id="Black_Outline" data-name="Black Outline">
            <path
                d="M257.84,414.44V255.31h53.44l8-62.06H257.84V153.68c0-18,5-30.21,30.76-30.21h32.86V68a451.4,451.4,0,0,0-47.89-2.43c-47.41,0-79.88,28.9-79.88,82v45.73H140.11v62.06h53.58V414.44ZM240,480A240,240,0,0,1,70.29,70.29,240,240,0,0,1,409.71,409.71,238.43,238.43,0,0,1,240,480Zm0-465A225,225,0,0,0,80.9,399.1,225,225,0,0,0,399.1,80.9,223.52,223.52,0,0,0,240,15Z" />
        </g>
    </g>
</svg>