<svg xmlns="http://www.w3.org/2000/svg" viewBox="0 0 480 480"><g id="Layer_2" data-name="Layer 2"><g id="Black_Outline" data-name="Black Outline"><path d="M240,480A240,240,0,0,1,70.29,70.29,240,240,0,0,1,409.71,409.71,238.43,238.43,0,0,1,240,480Zm0-465A225,225,0,0,0,80.9,399.1,225,225,0,0,0,399.1,80.9,223.52,223.52,0,0,0,240,15ZM377.25,269.67V371.15H318.42V276.46c0-23.78-8.51-40-29.81-40-16.26,0-25.93,10.94-30.19,21.53-1.55,3.78-1.95,9-1.95,14.34v98.84H197.62s.79-160.37,0-177h58.84v25.08c-.11.19-.27.39-.38.57h.38v-.57c7.82-12,21.79-29.24,53-29.24C348.22,190,377.25,215.3,377.25,269.67ZM136.05,108.85c-20.13,0-33.3,13.21-33.3,30.57,0,17,12.79,30.6,32.52,30.6h.39c20.53,0,33.29-13.61,33.29-30.6C168.57,122.06,156.19,108.85,136.05,108.85Zm-29.81,262.3h58.84v-177H106.24Z"/></g></g></svg>