<svg xmlns="http://www.w3.org/2000/svg" viewBox="0 0 480 480"><g id="Layer_2" data-name="Layer 2"><g id="Black_Outline" data-name="Black Outline"><path d="M410.8,142.57A127.47,127.47,0,0,1,374,152.72a64.66,64.66,0,0,0,28.21-35.64,128.9,128.9,0,0,1-40.77,15.65,64.14,64.14,0,0,0-111,44.09A65.3,65.3,0,0,0,252,191.51a181.91,181.91,0,0,1-132.25-67.36,64.73,64.73,0,0,0,19.86,86,63.89,63.89,0,0,1-29.06-8.09v.81a64.45,64.45,0,0,0,51.46,63.21,64.8,64.8,0,0,1-16.91,2.26,61.78,61.78,0,0,1-12.08-1.2A64.25,64.25,0,0,0,193,312a128.35,128.35,0,0,1-79.69,27.55,135.49,135.49,0,0,1-15.3-.88,180.79,180.79,0,0,0,98.36,29c118,0,182.56-98.22,182.56-183.41l-.21-8.34A128.68,128.68,0,0,0,410.8,142.57ZM240,480A240,240,0,0,1,70.29,70.29,240,240,0,0,1,409.71,409.71,238.43,238.43,0,0,1,240,480Zm0-465A225,225,0,0,0,80.9,399.1,225,225,0,0,0,399.1,80.9,223.52,223.52,0,0,0,240,15Z"/></g></g></svg>